HIERARCHY
ROOT Hips
{
	OFFSET	0.00	0.00	0.00
	CHANNELS 6 Xposition Yposition Zposition Zrotation Xrotation Yrotation
	JOINT LeftUpLeg
	{
		OFFSET	 0.126116	-0.014019	-0.065224
		CHANNELS 3 Zrotation Xrotation Yrotation
		JOINT LeftLeg
		{
			OFFSET	 0.000000	 0.000000	 0.569914
			CHANNELS 3 Zrotation Xrotation Yrotation
			JOINT LeftFoot
			{
				OFFSET	 0.000000	 0.000000	 0.544423
				CHANNELS 3 Zrotation Xrotation Yrotation
				JOINT LeftToeBase
				{
					OFFSET	 0.000000	 0.000000	 0.207117
					CHANNELS 3 Zrotation Xrotation Yrotation
					End Site
					{
						OFFSET	 0.000000	 0.000000	 0.207117
					}
				}
			}
		}
	}
	JOINT RightUpLeg
	{
		OFFSET	-0.124023	-0.008373	-0.065224
		CHANNELS 3 Zrotation Xrotation Yrotation
		JOINT RightLeg
		{
			OFFSET	 0.000000	 0.000000	 0.570047
			CHANNELS 3 Zrotation Xrotation Yrotation
			JOINT RightFoot
			{
				OFFSET	 0.000000	 0.000000	 0.544354
				CHANNELS 3 Zrotation Xrotation Yrotation
				JOINT RightToeBase
				{
					OFFSET	 0.000000	 0.000000	 0.207540
					CHANNELS 3 Zrotation Xrotation Yrotation
					End Site
					{
						OFFSET	 0.000000	 0.000000	 0.207540
					}
				}
			}
		}
	}
	JOINT Spine
	{
		OFFSET	 0.000184	-0.007763	 0.117403
		CHANNELS 3 Zrotation Xrotation Yrotation
		JOINT Spine1
		{
			OFFSET	 0.000000	 0.000000	 0.137269
			CHANNELS 3 Zrotation Xrotation Yrotation
			JOINT Spine2
			{
				OFFSET	 0.000000	 0.000000	 0.156879
				CHANNELS 3 Zrotation Xrotation Yrotation
				JOINT LeftShoulder
				{
					OFFSET	 0.080501	-0.002496	 0.160144
					CHANNELS 3 Zrotation Xrotation Yrotation
					JOINT LeftArm
					{
						OFFSET	 0.000000	 0.000000	 0.164363
						CHANNELS 3 Zrotation Xrotation Yrotation
						JOINT LeftForeArm
						{
							OFFSET	 0.000000	 0.000000	 0.364576
							CHANNELS 3 Zrotation Xrotation Yrotation
							JOINT LeftHand
							{
								OFFSET	 0.000000	 0.000000	 0.360812
								CHANNELS 3 Zrotation Xrotation Yrotation
								JOINT LeftHandIndex1
								{
									OFFSET	 0.000000	 0.000000	 0.086006
									CHANNELS 3 Zrotation Xrotation Yrotation
									JOINT LeftHandIndex2
									{
										OFFSET	 0.000000	 0.000000	 0.047236
										CHANNELS 3 Zrotation Xrotation Yrotation
										JOINT LeftHandIndex3
										{
											OFFSET	-0.004284	-0.000551	 0.038166
											CHANNELS 3 Zrotation Xrotation Yrotation
											End Site
											{
												OFFSET	-0.004284	-0.000551	 0.038166
											}
										}
									}
								}
							}
						}
					}
				}
				JOINT Neck
				{
					OFFSET	 0.000000	 0.000000	 0.176489
					CHANNELS 3 Zrotation Xrotation Yrotation
					JOINT Head
					{
						OFFSET	 0.000000	-0.001747	 0.077940
						CHANNELS 3 Zrotation Xrotation Yrotation
						End Site
						{
							OFFSET	 0.000000	-0.001747	 0.077940
						}
					}
				}
				JOINT RightShoulder
				{
					OFFSET	-0.080363	 0.000306	 0.159706
					CHANNELS 3 Zrotation Xrotation Yrotation
					JOINT RightArm
					{
						OFFSET	 0.000000	 0.000000	 0.164196
						CHANNELS 3 Zrotation Xrotation Yrotation
						JOINT RightForeArm
						{
							OFFSET	 0.000000	 0.000000	 0.365611
							CHANNELS 3 Zrotation Xrotation Yrotation
							JOINT RightHand
							{
								OFFSET	 0.000000	 0.000000	 0.360648
								CHANNELS 3 Zrotation Xrotation Yrotation
								JOINT RightHandIndex1
								{
									OFFSET	 0.000000	 0.000000	 0.069977
									CHANNELS 3 Zrotation Xrotation Yrotation
									JOINT RightHandIndex2
									{
										OFFSET	 0.000000	 0.000000	 0.052305
										CHANNELS 3 Zrotation Xrotation Yrotation
										JOINT RightHandIndex3
										{
											OFFSET	 0.009002	-0.000782	 0.042196
											CHANNELS 3 Zrotation Xrotation Yrotation
											End Site
											{
												OFFSET	 0.009002	-0.000782	 0.042196
											}
										}
									}
								}
							}
						}
					}
				}
			}
		}
	}
}
MOTION
Frames:    9
Frame Time: 0.03333334
-0.038413	 0.300318	 0.954153	-0.197312	 35.001920	-5.637348	-176.657600	-87.612720	 0.279985	 14.408490	-81.302060	 14.661920	-24.809210	 85.848530	 25.940540	-2.385832	 28.452790	-0.000001	 119.385000	-78.205470	-67.328170	-28.778040	-81.876630	-23.420300	 49.068150	 81.666730	-39.177940	 2.384659	 28.388700	-0.000001	-4.187966	 15.614580	 2.502199	-3.700361	 22.677610	 6.098439	 4.128557	-0.924244	 0.287927	-99.166910	 68.202290	 156.776900	 11.433720	-5.982432	-34.318700	-4.375243	 11.950720	-37.919390	-23.330020	-18.344400	-17.831260	-2.027600	 6.559038	 9.033609	-5.188889	 0.308190	 3.541030	-5.234859	 0.342567	 0.430617	 0.389701	 17.775870	-6.097294	 6.650503	-26.770200	 2.416514	 97.450050	 64.653050	-159.066800	-3.134254	 4.614101	 50.203300	-6.802860	 0.458697	 28.390760	 7.638075	-17.154080	 13.472580	 1.803333	 3.979147	-15.098590	 4.898592	 3.004813	-9.310344	 5.224449	 0.395017	 2.014677
-0.039190	 0.298509	 0.962230	-0.360322	 33.847880	-4.950714	-114.081400	-89.047770	 62.956690	 12.299300	-80.487590	 12.546570	-28.294670	 85.639780	 29.531230	-2.385832	 28.452790	-0.000001	 111.179800	-79.664310	-75.529330	-27.177530	-80.962470	-21.783490	 47.330820	 81.701040	-37.269170	 2.384659	 28.388700	-0.000001	-4.061281	 15.975540	 2.330297	-3.415137	 24.075030	 5.643238	 4.052207	-2.960615	 0.098185	-98.603210	 68.653270	 157.843600	 10.608700	-3.130116	-35.998470	-3.932314	 11.741230	-38.312740	-24.231060	-18.897990	-18.715250	-2.027600	 6.559038	 9.033609	-5.188889	 0.308190	 3.541030	-5.234859	 0.342567	 0.430617	-0.399286	 12.084640	-4.314662	 5.851612	-21.494410	 0.899653	 97.125750	 64.222850	-160.261900	-4.245170	 4.242939	 51.496970	-6.102976	 0.844410	 28.596680	 7.627381	-17.291590	 15.205340	 1.803333	 3.979147	-15.098590	 4.898592	 3.004813	-9.310344	 5.224449	 0.395017	 2.014677
-0.039504	 0.296860	 0.974632	-0.505682	 32.365600	-4.280911	-34.163850	-87.135700	 143.092600	 10.241970	-78.983250	 10.466480	-30.569920	 85.176060	 31.742800	-2.385833	 28.452760	 0.000004	 95.946110	-80.979600	-90.641230	-25.036850	-79.443690	-19.579730	 44.285710	 81.624610	-34.045150	 2.384659	 28.388700	-0.000001	-4.053040	 16.539930	 2.235441	-3.108638	 25.144580	 5.183434	 3.855268	-4.955540	-0.141204	-97.514920	 70.130780	 159.045000	 10.165410	 0.811950	-38.048820	-3.390203	 11.417040	-38.654660	-25.292160	-19.641140	-20.353330	-2.027600	 6.559038	 9.033609	-5.188889	 0.308190	 3.541030	-5.234859	 0.342567	 0.430617	-0.944730	 4.693904	-2.720379	 5.099662	-14.461080	-0.702339	 96.674050	 64.318280	-161.310500	-5.217900	 4.741494	 52.547940	-6.091229	 0.863640	 28.957800	 7.204423	-17.032590	 16.489130	 1.803333	 3.979147	-15.098590	 4.898592	 3.004813	-9.310344	 5.224449	 0.395017	 2.014677
-0.038680	 0.296530	 0.991675	-0.622468	 30.408750	-3.498972	-21.183280	-83.588950	 156.336800	 8.971079	-76.739460	 9.141601	-30.591460	 84.592820	 31.482100	-2.385833	 28.452760	 0.000004	 71.022270	-81.297550	-115.321400	-23.119700	-77.185620	-17.553590	 40.977580	 81.439730	-30.356800	 2.384659	 28.388700	-0.000001	-4.114131	 17.327320	 2.087414	-2.761632	 25.945670	 4.576213	 3.622815	-7.056340	-0.261253	-95.368100	 73.576810	 160.147200	 10.777260	 6.761383	-41.356690	-2.793741	 10.926170	-38.714990	-26.647750	-20.611500	-22.178170	-2.027600	 6.559038	 9.033609	-5.188889	 0.308190	 3.541030	-5.234859	 0.342567	 0.430617	-1.310630	-3.782516	-2.155368	 4.697423	-6.286393	-1.531307	 95.568370	 66.330800	-162.474900	-6.495505	 7.876257	 54.183030	-6.619563	 0.585236	 29.554250	 7.133551	-17.720070	 17.496690	 1.803333	 3.979147	-15.098590	 4.898592	 3.004813	-9.310344	 5.224449	 0.395017	 2.014677
-0.035929	 0.295630	 1.015639	-0.401603	 27.865860	-2.637229	-16.294390	-78.729420	 161.824900	 8.200795	-73.426770	 8.311225	-26.964570	 83.692450	 27.344650	-2.385833	 28.452750	 0.000004	 42.964470	-78.997670	-142.897700	-17.609290	-74.186780	-12.005290	 37.877490	 81.179020	-27.726660	 2.384659	 28.388700	-0.000001	-4.255873	 18.054500	 1.647632	-2.512222	 26.555370	 3.714474	 3.342420	-9.556895	-0.267119	-93.076030	 76.826970	 161.466800	 13.564220	 12.570010	-44.905990	-2.006356	 10.296920	-38.840380	-27.119690	-21.517650	-24.188240	-2.027600	 6.559038	 9.033609	-5.188889	 0.308190	 3.541030	-5.234859	 0.342567	 0.430617	-1.664495	-13.185680	-2.327037	 4.394165	 2.706866	-1.905398	 94.218050	 68.930660	-163.845700	-8.869152	 12.020790	 55.284160	-7.181378	 0.282796	 31.026760	 7.004519	-18.662910	 18.010080	 1.803333	 3.979147	-15.098590	 4.898592	 3.004813	-9.310344	 5.224449	 0.395017	 2.014677
-0.031048	 0.291145	 1.041555	 0.415166	 25.988190	-2.115049	-13.039380	-74.361370	 165.924100	 7.391019	-69.757260	 7.330746	-20.177010	 82.804310	 20.259170	-2.385833	 28.452750	 0.000004	 28.563880	-75.150380	-156.497100	-13.194260	-70.726840	-7.602362	 36.022020	 80.460390	-26.325710	 2.384659	 28.388700	-0.000001	-4.178394	 17.371490	 0.691227	-2.487806	 26.635090	 2.840559	 3.116072	-11.566470	-0.403330	-94.013950	 74.972270	 163.575500	 16.215530	 14.013440	-43.790360	-0.948616	 10.134000	-40.958600	-25.884980	-21.578200	-25.550790	-2.027600	 6.559038	 9.033609	-5.188889	 0.308190	 3.541030	-5.234859	 0.342567	 0.430617	-1.690822	-14.772100	-0.998102	 4.129295	 4.325870	-2.675817	 93.772330	 69.266760	-165.049100	-11.107930	 14.522440	 53.375800	-7.646808	 0.003237	 34.381050	 6.384092	-18.769850	 18.152320	 1.803333	 3.979147	-15.098590	 4.898592	 3.004813	-9.310344	 5.224449	 0.395017	 2.014677
-0.025490	 0.282089	 1.077232	 1.270082	 23.949930	-1.425571	-11.323490	-68.493630	 168.569600	 6.262704	-64.422450	 6.029775	-14.333900	 81.177930	 14.097050	-2.385833	 28.452750	 0.000004	 18.223830	-69.406040	-165.950100	-9.204738	-65.357990	-3.689930	 31.342290	 79.197300	-22.267380	 2.384659	 28.388700	-0.000001	-4.168744	 15.594080	-0.102573	-2.071187	 26.497050	 1.715412	 2.646211	-13.893750	-0.395226	-94.597050	 73.030310	 165.621300	 19.890790	 15.043190	-41.386260	 0.546925	 10.012990	-44.705880	-23.683130	-21.257380	-25.193500	-2.027600	 6.559038	 9.033609	-5.188889	 0.308190	 3.541030	-5.234859	 0.342567	 0.430617	-1.826946	-15.234110	-0.869221	 3.848053	 5.244699	-2.494202	 93.981640	 66.443390	-167.148600	-13.636530	 14.887410	 49.088500	-8.037414	-0.331434	 40.661980	 5.025192	-18.007270	 18.095490	 1.803333	 3.979147	-15.098590	 4.898592	 3.004813	-9.310344	 5.224449	 0.395017	 2.014677
-0.021462	 0.269767	 1.114727	 2.024032	 21.655420	-0.819496	-10.163250	-61.824460	 170.462800	 5.192099	-58.418190	 4.782147	-10.883520	 79.514760	 10.483380	-2.385833	 28.452750	 0.000004	 12.008150	-62.603000	-171.471000	-6.371577	-59.008280	-1.050419	 26.095800	 77.877450	-17.645700	 2.384659	 28.388700	-0.000001	-3.896061	 13.159240	-0.541296	-1.454248	 25.993440	 0.542226	 2.142499	-15.571200	-0.418477	-94.813030	 71.293660	 167.514400	 22.929020	 15.823430	-39.159210	 2.080944	 9.830163	-49.042830	-21.405070	-20.547900	-23.718490	-2.027600	 6.559038	 9.033609	-5.188889	 0.308190	 3.541030	-5.234859	 0.342567	 0.430617	-1.862090	-14.694380	-0.649710	 3.426265	 5.443136	-2.490858	 93.759060	 64.578990	-169.024300	-15.600870	 15.550210	 44.668530	-8.457559	-0.874759	 47.337680	 3.784920	-17.292000	 17.712260	 1.803333	 3.979147	-15.098590	 4.898592	 3.004813	-9.310344	 5.224449	 0.395017	 2.014677
-0.017490	 0.252944	 1.146752	 2.535028	 18.099820	-0.318928	-8.370319	-53.858200	 172.669000	 4.214402	-53.175110	 3.709835	-7.812816	 78.824910	 7.609299	-2.385833	 28.452750	 0.000004	 8.668015	-54.363640	-174.528700	-4.341014	-53.379840	 0.646320	 23.441430	 77.236080	-15.561040	 2.384659	 28.388700	-0.000001	-3.539986	 10.977420	-0.734026	-1.060835	 25.030700	-0.169997	 1.647192	-15.986210	-0.339484	-94.632240	 70.448980	 169.186200	 24.716460	 16.474480	-37.487660	 3.479313	 9.505562	-53.247040	-19.532880	-19.921810	-23.005760	-2.027600	 6.559038	 9.033609	-5.188889	 0.308190	 3.541030	-5.234859	 0.342567	 0.430617	-1.910323	-13.312780	-0.843300	 2.914639	 5.003424	-2.367393	 93.388070	 63.701660	-170.478900	-17.237060	 16.858360	 42.189590	-8.875132	-1.558789	 51.862400	 2.736252	-16.576270	 17.641760	 1.803333	 3.979147	-15.098590	 4.898592	 3.004813	-9.310344	 5.224449	 0.395017	 2.014677
